<?xml version="1.0" encoding="UTF-8"?>
<!-- Created by Makercase v3 -->
<svg width="365.02mm" height="194.03mm" viewBox="-5 -189.02974666666668 365.02 194.03" version="1.1" xmlns="http://www.w3.org/2000/svg" xmlns:xlink="http://www.w3.org/1999/xlink"><path d="M80.827 -30.255L80.827 -25.755" fill="none" stroke="#777777" stroke-width="0.5"></path>
<path d="M80.827 -30.255L83.613 -30.255" fill="none" stroke="#777777" stroke-width="0.5"></path>
<path d="M80.827 -28.112L82.541 -28.112" fill="none" stroke="#777777" stroke-width="0.5"></path>
<path d="M84.684 -28.755L84.684 -25.755" fill="none" stroke="#777777" stroke-width="0.5"></path>
<path d="M84.684 -27.469L84.898 -28.112L85.327 -28.540L85.755 -28.755L86.398 -28.755" fill="none" stroke="#777777" stroke-width="0.5"></path>
<path d="M88.327 -28.755L87.898 -28.540L87.470 -28.112L87.255 -27.469L87.255 -27.040L87.470 -26.398L87.898 -25.969L88.327 -25.755L88.970 -25.755L89.398 -25.969L89.827 -26.398L90.041 -27.040L90.041 -27.469L89.827 -28.112L89.398 -28.540L88.970 -28.755L88.327 -28.755Z" fill="none" stroke="#777777" stroke-width="0.5"></path>
<path d="M91.541 -28.755L91.541 -25.755" fill="none" stroke="#777777" stroke-width="0.5"></path>
<path d="M91.541 -27.898L92.184 -28.540L92.613 -28.755L93.255 -28.755L93.684 -28.540L93.898 -27.898L93.898 -25.755" fill="none" stroke="#777777" stroke-width="0.5"></path>
<path d="M95.827 -30.255L95.827 -26.612L96.041 -25.969L96.470 -25.755L96.898 -25.755" fill="none" stroke="#777777" stroke-width="0.5"></path>
<path d="M95.184 -28.755L96.684 -28.755" fill="none" stroke="#777777" stroke-width="0.5"></path>
<path d="M78.000 -56.009L78.000 -53.009L58.010 -53.009L58.010 -56.009L38.000 -56.009L38.000 -53.009L18.010 -53.009L18.010 -56.009L3.001 -56.009L3.001 -38.010L0.000 -38.010L0.000 -17.999L3.001 -17.999L3.001 0.000L18.010 0.000L18.010 -3.000L38.000 -3.000L38.000 0.000L58.010 0.000L58.010 -3.000L78.000 -3.000L78.000 0.000L98.011 0.000L98.011 -3.000L118.001 -3.000L118.001 0.000L138.011 0.000L138.011 -3.000L158.001 -3.000L158.001 0.000L173.010 0.000L173.010 -17.999L176.011 -17.999L176.011 -38.010L173.010 -38.010L173.010 -56.009L158.001 -56.009L158.001 -53.009L138.011 -53.009L138.011 -56.009L118.001 -56.009L118.001 -53.009L98.011 -53.009L98.011 -56.009L78.000 -56.009Z" fill="none" stroke="#ff0000" stroke-width="0.001"></path>
<path d="M260.480 -30.255L260.480 -25.755" fill="none" stroke="#777777" stroke-width="0.5"></path>
<path d="M260.480 -30.255L262.409 -30.255L263.052 -30.040L263.266 -29.826L263.480 -29.398L263.480 -28.969L263.266 -28.540L263.052 -28.326L262.409 -28.112" fill="none" stroke="#777777" stroke-width="0.5"></path>
<path d="M260.480 -28.112L262.409 -28.112L263.052 -27.898L263.266 -27.683L263.480 -27.255L263.480 -26.612L263.266 -26.183L263.052 -25.969L262.409 -25.755L260.480 -25.755" fill="none" stroke="#777777" stroke-width="0.5"></path>
<path d="M267.338 -28.755L267.338 -25.755" fill="none" stroke="#777777" stroke-width="0.5"></path>
<path d="M267.338 -28.112L266.909 -28.540L266.480 -28.755L265.838 -28.755L265.409 -28.540L264.980 -28.112L264.766 -27.469L264.766 -27.040L264.980 -26.398L265.409 -25.969L265.838 -25.755L266.480 -25.755L266.909 -25.969L267.338 -26.398" fill="none" stroke="#777777" stroke-width="0.5"></path>
<path d="M271.409 -28.112L270.980 -28.540L270.552 -28.755L269.909 -28.755L269.480 -28.540L269.052 -28.112L268.838 -27.469L268.838 -27.040L269.052 -26.398L269.480 -25.969L269.909 -25.755L270.552 -25.755L270.980 -25.969L271.409 -26.398" fill="none" stroke="#777777" stroke-width="0.5"></path>
<path d="M272.909 -30.255L272.909 -25.755" fill="none" stroke="#777777" stroke-width="0.5"></path>
<path d="M275.052 -28.755L272.909 -26.612" fill="none" stroke="#777777" stroke-width="0.5"></path>
<path d="M273.766 -27.469L275.266 -25.755" fill="none" stroke="#777777" stroke-width="0.5"></path>
<path d="M257.011 -56.009L257.011 -53.009L237.021 -53.009L237.021 -56.009L217.011 -56.009L217.011 -53.009L197.021 -53.009L197.021 -56.009L182.011 -56.009L182.011 -38.010L179.011 -38.010L179.011 -17.999L182.011 -17.999L182.011 0.000L197.021 0.000L197.021 -3.000L217.011 -3.000L217.011 0.000L237.021 0.000L237.021 -3.000L257.011 -3.000L257.011 0.000L277.022 0.000L277.022 -3.000L297.011 -3.000L297.011 0.000L317.021 0.000L317.021 -3.000L337.011 -3.000L337.011 0.000L352.021 0.000L352.021 -17.999L355.022 -17.999L355.022 -38.010L352.021 -38.010L352.021 -56.009L337.011 -56.009L337.011 -53.009L317.021 -53.009L317.021 -56.009L297.011 -56.009L297.011 -53.009L277.022 -53.009L277.022 -56.009L257.011 -56.009Z" fill="none" stroke="#ff0000" stroke-width="0.001"></path>
<path d="M28.184 -89.264L28.184 -84.764" fill="none" stroke="#777777" stroke-width="0.5"></path>
<path d="M28.184 -84.764L30.755 -84.764" fill="none" stroke="#777777" stroke-width="0.5"></path>
<path d="M31.612 -86.479L34.184 -86.479L34.184 -86.907L33.969 -87.336L33.755 -87.550L33.327 -87.764L32.684 -87.764L32.255 -87.550L31.827 -87.121L31.612 -86.479L31.612 -86.050L31.827 -85.407L32.255 -84.979L32.684 -84.764L33.327 -84.764L33.755 -84.979L34.184 -85.407" fill="none" stroke="#777777" stroke-width="0.5"></path>
<path d="M36.969 -89.264L36.541 -89.264L36.112 -89.050L35.898 -88.407L35.898 -84.764" fill="none" stroke="#777777" stroke-width="0.5"></path>
<path d="M35.255 -87.764L36.755 -87.764" fill="none" stroke="#777777" stroke-width="0.5"></path>
<path d="M38.469 -89.264L38.469 -85.621L38.684 -84.979L39.112 -84.764L39.541 -84.764" fill="none" stroke="#777777" stroke-width="0.5"></path>
<path d="M37.827 -87.764L39.327 -87.764" fill="none" stroke="#777777" stroke-width="0.5"></path>
<path d="M63.000 -115.019L63.000 -112.019L43.010 -112.019L43.010 -115.019L23.000 -115.019L23.000 -112.019L3.010 -112.019L3.010 -115.019L0.000 -115.019L0.000 -97.010L3.000 -97.010L3.000 -77.019L0.000 -77.019L0.000 -59.009L3.010 -59.009L3.010 -62.009L23.000 -62.009L23.000 -59.009L43.010 -59.009L43.010 -62.009L63.000 -62.009L63.000 -59.009L66.010 -59.009L66.010 -77.019L63.010 -77.019L63.010 -97.010L66.010 -97.010L66.010 -115.019L63.000 -115.019Z" fill="none" stroke="#ff0000" stroke-width="0.001"></path>
<path d="M95.051 -88.407L95.051 -83.907" fill="none" stroke="#777777" stroke-width="0.5"></path>
<path d="M95.051 -88.407L96.980 -88.407L97.623 -88.193L97.837 -87.979L98.051 -87.550L98.051 -87.121L97.837 -86.693L97.623 -86.479L96.980 -86.264L95.051 -86.264" fill="none" stroke="#777777" stroke-width="0.5"></path>
<path d="M96.551 -86.264L98.051 -83.907" fill="none" stroke="#777777" stroke-width="0.5"></path>
<path d="M99.337 -88.407L99.551 -88.193L99.765 -88.407L99.551 -88.621L99.337 -88.407Z" fill="none" stroke="#777777" stroke-width="0.5"></path>
<path d="M99.551 -86.907L99.551 -83.907" fill="none" stroke="#777777" stroke-width="0.5"></path>
<path d="M103.623 -86.907L103.623 -83.479L103.408 -82.836L103.194 -82.621L102.765 -82.407L102.123 -82.407L101.694 -82.621" fill="none" stroke="#777777" stroke-width="0.5"></path>
<path d="M103.623 -86.264L103.194 -86.693L102.765 -86.907L102.123 -86.907L101.694 -86.693L101.265 -86.264L101.051 -85.621L101.051 -85.193L101.265 -84.550L101.694 -84.121L102.123 -83.907L102.765 -83.907L103.194 -84.121L103.623 -84.550" fill="none" stroke="#777777" stroke-width="0.5"></path>
<path d="M105.337 -88.407L105.337 -83.907" fill="none" stroke="#777777" stroke-width="0.5"></path>
<path d="M105.337 -86.050L105.980 -86.693L106.408 -86.907L107.051 -86.907L107.480 -86.693L107.694 -86.050L107.694 -83.907" fill="none" stroke="#777777" stroke-width="0.5"></path>
<path d="M109.623 -88.407L109.623 -84.764L109.837 -84.121L110.265 -83.907L110.694 -83.907" fill="none" stroke="#777777" stroke-width="0.5"></path>
<path d="M108.980 -86.907L110.480 -86.907" fill="none" stroke="#777777" stroke-width="0.5"></path>
<path d="M132.011 -115.019L132.011 -112.019L112.021 -112.019L112.021 -115.019L92.010 -115.019L92.010 -112.019L72.020 -112.019L72.020 -115.019L69.010 -115.019L69.010 -97.010L72.010 -97.010L72.010 -77.019L69.010 -77.019L69.010 -59.009L72.020 -59.009L72.020 -62.009L92.010 -62.009L92.010 -59.009L112.021 -59.009L112.021 -62.009L132.011 -62.009L132.011 -59.009L135.020 -59.009L135.020 -77.019L132.021 -77.019L132.021 -97.010L135.020 -97.010L135.020 -115.019L132.011 -115.019Z" fill="none" stroke="#ff0000" stroke-width="0.001"></path>
<path d="M77.612 -153.275L77.612 -148.775" fill="none" stroke="#777777" stroke-width="0.5"></path>
<path d="M77.612 -153.275L79.541 -153.275L80.184 -153.060L80.398 -152.846L80.612 -152.417L80.612 -151.989L80.398 -151.560L80.184 -151.346L79.541 -151.132" fill="none" stroke="#777777" stroke-width="0.5"></path>
<path d="M77.612 -151.132L79.541 -151.132L80.184 -150.917L80.398 -150.703L80.612 -150.275L80.612 -149.632L80.398 -149.203L80.184 -148.989L79.541 -148.775L77.612 -148.775" fill="none" stroke="#777777" stroke-width="0.5"></path>
<path d="M82.970 -151.775L82.541 -151.560L82.112 -151.132L81.898 -150.489L81.898 -150.060L82.112 -149.417L82.541 -148.989L82.970 -148.775L83.612 -148.775L84.041 -148.989L84.470 -149.417L84.684 -150.060L84.684 -150.489L84.470 -151.132L84.041 -151.560L83.612 -151.775L82.970 -151.775Z" fill="none" stroke="#777777" stroke-width="0.5"></path>
<path d="M86.398 -153.275L86.398 -149.632L86.612 -148.989L87.041 -148.775L87.470 -148.775" fill="none" stroke="#777777" stroke-width="0.5"></path>
<path d="M85.755 -151.775L87.255 -151.775" fill="none" stroke="#777777" stroke-width="0.5"></path>
<path d="M88.970 -153.275L88.970 -149.632L89.184 -148.989L89.612 -148.775L90.041 -148.775" fill="none" stroke="#777777" stroke-width="0.5"></path>
<path d="M88.327 -151.775L89.827 -151.775" fill="none" stroke="#777777" stroke-width="0.5"></path>
<path d="M92.184 -151.775L91.755 -151.560L91.327 -151.132L91.112 -150.489L91.112 -150.060L91.327 -149.417L91.755 -148.989L92.184 -148.775L92.827 -148.775L93.255 -148.989L93.684 -149.417L93.898 -150.060L93.898 -150.489L93.684 -151.132L93.255 -151.560L92.827 -151.775L92.184 -151.775Z" fill="none" stroke="#777777" stroke-width="0.5"></path>
<path d="M95.398 -151.775L95.398 -148.775" fill="none" stroke="#777777" stroke-width="0.5"></path>
<path d="M95.398 -150.917L96.041 -151.560L96.470 -151.775L97.112 -151.775L97.541 -151.560L97.755 -150.917L97.755 -148.775" fill="none" stroke="#777777" stroke-width="0.5"></path>
<path d="M97.755 -150.917L98.398 -151.560L98.827 -151.775L99.470 -151.775L99.898 -151.560L100.112 -150.917L100.112 -148.775" fill="none" stroke="#777777" stroke-width="0.5"></path>
<path d="M18.000 -184.030L18.000 -181.029L0.000 -181.029L0.000 -161.019L3.000 -161.019L3.000 -141.030L0.000 -141.030L0.000 -121.020L18.000 -121.020L18.000 -118.019L38.011 -118.019L38.011 -121.020L58.000 -121.020L58.000 -118.019L78.010 -118.019L78.010 -121.020L98.000 -121.020L98.000 -118.019L118.010 -118.019L118.010 -121.020L138.000 -121.020L138.000 -118.019L158.011 -118.019L158.011 -121.020L176.010 -121.020L176.010 -141.030L173.010 -141.030L173.010 -161.019L176.010 -161.019L176.010 -181.029L158.011 -181.029L158.011 -184.030L138.000 -184.030L138.000 -181.029L118.010 -181.029L118.010 -184.030L98.000 -184.030L98.000 -181.029L78.010 -181.029L78.010 -184.030L58.000 -184.030L58.000 -181.029L38.011 -181.029L38.011 -184.030L18.000 -184.030Z" fill="none" stroke="#ff0000" stroke-width="0.001"></path>
<path d="M263.373 -152.525L263.373 -148.025" fill="none" stroke="#777777" stroke-width="0.5"></path>
<path d="M261.873 -152.525L264.873 -152.525" fill="none" stroke="#777777" stroke-width="0.5"></path>
<path d="M266.801 -151.025L266.373 -150.810L265.944 -150.382L265.730 -149.739L265.730 -149.310L265.944 -148.667L266.373 -148.239L266.801 -148.025L267.444 -148.025L267.873 -148.239L268.301 -148.667L268.516 -149.310L268.516 -149.739L268.301 -150.382L267.873 -150.810L267.444 -151.025L266.801 -151.025Z" fill="none" stroke="#777777" stroke-width="0.5"></path>
<path d="M270.016 -151.025L270.016 -146.525" fill="none" stroke="#777777" stroke-width="0.5"></path>
<path d="M270.016 -150.382L270.444 -150.810L270.873 -151.025L271.516 -151.025L271.944 -150.810L272.373 -150.382L272.587 -149.739L272.587 -149.310L272.373 -148.667L271.944 -148.239L271.516 -148.025L270.873 -148.025L270.444 -148.239L270.016 -148.667" fill="none" stroke="#777777" stroke-width="0.5"></path>
<path d="M197.010 -184.030L197.010 -181.029L179.010 -181.029L179.010 -161.019L182.011 -161.019L182.011 -141.030L179.010 -141.030L179.010 -121.020L197.010 -121.020L197.010 -118.019L217.021 -118.019L217.021 -121.020L237.011 -121.020L237.011 -118.019L257.021 -118.019L257.021 -121.020L277.011 -121.020L277.011 -118.019L297.020 -118.019L297.020 -121.020L317.010 -121.020L317.010 -118.019L337.021 -118.019L337.021 -121.020L355.021 -121.020L355.021 -141.030L352.021 -141.030L352.021 -161.019L355.021 -161.019L355.021 -181.029L337.021 -181.029L337.021 -184.030L317.010 -184.030L317.010 -181.029L297.020 -181.029L297.020 -184.030L277.011 -184.030L277.011 -181.029L257.021 -181.029L257.021 -184.030L237.011 -184.030L237.011 -181.029L217.021 -181.029L217.021 -184.030L197.010 -184.030Z" fill="none" stroke="#ff0000" stroke-width="0.001"></path></svg>